<svg width="14" height="10" viewBox="0 0 14 10" fill="none" xmlns="http://www.w3.org/2000/svg">
<path d="M0.8125 9.5C0.65 9.5 0.515625 9.44688 0.409375 9.34063C0.303125 9.23438 0.25 9.1 0.25 8.9375C0.25 8.775 0.303125 8.64062 0.409375 8.53437C0.515625 8.42812 0.65 8.375 0.8125 8.375H13.1875C13.35 8.375 13.4844 8.42812 13.5906 8.53437C13.6969 8.64062 13.75 8.775 13.75 8.9375C13.75 9.1 13.6969 9.23438 13.5906 9.34063C13.4844 9.44688 13.35 9.5 13.1875 9.5H0.8125ZM0.8125 5.5625C0.65 5.5625 0.515625 5.50938 0.409375 5.40313C0.303125 5.29688 0.25 5.1625 0.25 5C0.25 4.8375 0.303125 4.70312 0.409375 4.59687C0.515625 4.49062 0.65 4.4375 0.8125 4.4375H13.1875C13.35 4.4375 13.4844 4.49062 13.5906 4.59687C13.6969 4.70312 13.75 4.8375 13.75 5C13.75 5.1625 13.6969 5.29688 13.5906 5.40313C13.4844 5.50938 13.35 5.5625 13.1875 5.5625H0.8125ZM0.8125 1.625C0.65 1.625 0.515625 1.57187 0.409375 1.46562C0.303125 1.35937 0.25 1.225 0.25 1.0625C0.25 0.9 0.303125 0.765625 0.409375 0.659375C0.515625 0.553125 0.65 0.5 0.8125 0.5H13.1875C13.35 0.5 13.4844 0.553125 13.5906 0.659375C13.6969 0.765625 13.75 0.9 13.75 1.0625C13.75 1.225 13.6969 1.35937 13.5906 1.46562C13.4844 1.57187 13.35 1.625 13.1875 1.625H0.8125Z" fill="#606266"/>
</svg>
