<svg width="40" height="40" viewBox="0 0 40 40" fill="none" xmlns="http://www.w3.org/2000/svg">
<rect width="40" height="40" rx="8" fill="white"/>
<path d="M19.0416 23.0625L17.2916 21.3125C17.2361 21.2569 17.1736 21.2153 17.1041 21.1875C17.0347 21.1597 16.9653 21.1458 16.8958 21.1458C16.8264 21.1458 16.7569 21.1597 16.6875 21.1875C16.618 21.2153 16.5555 21.2639 16.5 21.3333C16.3889 21.4444 16.3333 21.5799 16.3333 21.7396C16.3333 21.8993 16.3889 22.0347 16.5 22.1458L18.6041 24.25C18.6736 24.3194 18.743 24.368 18.8125 24.3958C18.8819 24.4236 18.9583 24.4375 19.0416 24.4375C19.125 24.4375 19.2014 24.4236 19.2708 24.3958C19.3403 24.368 19.4097 24.3194 19.4791 24.25L23.4166 20.3125C23.5278 20.2014 23.5833 20.066 23.5833 19.9062C23.5833 19.7465 23.5278 19.6111 23.4166 19.5C23.3055 19.3889 23.1701 19.3333 23.0104 19.3333C22.8507 19.3333 22.7153 19.3889 22.6041 19.5L19.0416 23.0625ZM14.5833 28.3333C14.25 28.3333 13.9583 28.2083 13.7083 27.9583C13.4583 27.7083 13.3333 27.4167 13.3333 27.0833V12.9167C13.3333 12.5833 13.4583 12.2917 13.7083 12.0417C13.9583 11.7917 14.25 11.6667 14.5833 11.6667H21.5833C21.75 11.6667 21.9132 11.7014 22.0729 11.7708C22.2326 11.8403 22.368 11.9305 22.4791 12.0417L26.2916 15.8542C26.4028 15.9653 26.493 16.1007 26.5625 16.2604C26.6319 16.4201 26.6666 16.5833 26.6666 16.75V27.0833C26.6666 27.4167 26.5416 27.7083 26.2916 27.9583C26.0416 28.2083 25.75 28.3333 25.4166 28.3333H14.5833ZM21.4791 16.1667V12.9167H14.5833V27.0833H25.4166V16.7917H22.1041C21.9236 16.7917 21.7743 16.7326 21.6562 16.6146C21.5382 16.4965 21.4791 16.3472 21.4791 16.1667ZM14.5833 12.9167V16.7917V12.9167V27.0833V12.9167Z" fill="#606266"/>
</svg>
