<svg width="14" height="18" viewBox="0 0 14 18" fill="none" xmlns="http://www.w3.org/2000/svg">
<path d="M6.04165 12.0625L4.29165 10.3125C4.23609 10.2569 4.17359 10.2153 4.10415 10.1875C4.0347 10.1597 3.96526 10.1458 3.89581 10.1458C3.82637 10.1458 3.75692 10.1597 3.68748 10.1875C3.61803 10.2153 3.55554 10.2639 3.49998 10.3333C3.38887 10.4444 3.33331 10.5799 3.33331 10.7396C3.33331 10.8993 3.38887 11.0347 3.49998 11.1458L5.60415 13.25C5.67359 13.3194 5.74303 13.368 5.81248 13.3958C5.88192 13.4236 5.95831 13.4375 6.04165 13.4375C6.12498 13.4375 6.20137 13.4236 6.27081 13.3958C6.34026 13.368 6.4097 13.3194 6.47915 13.25L10.4166 9.31249C10.5278 9.20138 10.5833 9.06596 10.5833 8.90624C10.5833 8.74652 10.5278 8.6111 10.4166 8.49999C10.3055 8.38888 10.1701 8.33332 10.0104 8.33332C9.85067 8.33332 9.71526 8.38888 9.60415 8.49999L6.04165 12.0625ZM1.58331 17.3333C1.24998 17.3333 0.958313 17.2083 0.708313 16.9583C0.458313 16.7083 0.333313 16.4167 0.333313 16.0833V1.91666C0.333313 1.58332 0.458313 1.29166 0.708313 1.04166C0.958313 0.791657 1.24998 0.666656 1.58331 0.666656H8.58331C8.74998 0.666656 8.91317 0.701379 9.0729 0.770823C9.23262 0.840268 9.36804 0.930545 9.47915 1.04166L13.2916 4.85416C13.4028 4.96527 13.493 5.10068 13.5625 5.26041C13.6319 5.42013 13.6666 5.58332 13.6666 5.74999V16.0833C13.6666 16.4167 13.5416 16.7083 13.2916 16.9583C13.0416 17.2083 12.75 17.3333 12.4166 17.3333H1.58331ZM8.47915 5.16666V1.91666H1.58331V16.0833H12.4166V5.79166H9.10415C8.92359 5.79166 8.77429 5.73263 8.65623 5.61457C8.53817 5.49652 8.47915 5.34721 8.47915 5.16666ZM1.58331 1.91666V5.79166V1.91666V16.0833V1.91666Z" fill="#606266"/>
</svg>
