<svg width="40" height="40" viewBox="0 0 40 40" fill="none" xmlns="http://www.w3.org/2000/svg">
<rect width="40" height="40" rx="8" fill="white"/>
<g clip-path="url(#clip0_25_4680)">
<path d="M11.2292 27.5C10.8959 27.5 10.6042 27.375 10.3542 27.125C10.1042 26.875 9.97919 26.5833 9.97919 26.25V13.75C9.97919 13.4167 10.1042 13.125 10.3542 12.875C10.6042 12.625 10.8959 12.5 11.2292 12.5H28.75C29.0834 12.5 29.375 12.625 29.625 12.875C29.875 13.125 30 13.4167 30 13.75V26.25C30 26.5833 29.875 26.875 29.625 27.125C29.375 27.375 29.0834 27.5 28.75 27.5H11.2292ZM22.2709 26.25H28.75V13.75H11.2292V26.25H11.4375C12.0486 25.2222 12.8264 24.4444 13.7709 23.9167C14.7153 23.3889 15.7431 23.125 16.8542 23.125C17.9653 23.125 18.9896 23.3889 19.9271 23.9167C20.8646 24.4444 21.6459 25.2222 22.2709 26.25ZM16.8542 21.4583C17.5486 21.4583 18.132 21.2222 18.6042 20.75C19.0764 20.2778 19.3125 19.6944 19.3125 19C19.3125 18.3056 19.0764 17.7222 18.6042 17.25C18.132 16.7778 17.5486 16.5417 16.8542 16.5417C16.1597 16.5417 15.5764 16.7778 15.1042 17.25C14.632 17.7222 14.3959 18.3056 14.3959 19C14.3959 19.6944 14.632 20.2778 15.1042 20.75C15.5764 21.2222 16.1597 21.4583 16.8542 21.4583ZM22.3334 19.0833H26.6667C26.8472 19.0833 26.9965 19.0243 27.1146 18.9062C27.2327 18.7882 27.2917 18.6389 27.2917 18.4583V15.8333C27.2917 15.6528 27.2327 15.5035 27.1146 15.3854C26.9965 15.2674 26.8472 15.2083 26.6667 15.2083H22.3334C22.1528 15.2083 22.0035 15.2674 21.8854 15.3854C21.7674 15.5035 21.7084 15.6528 21.7084 15.8333V18.4583C21.7084 18.6389 21.7674 18.7882 21.8854 18.9062C22.0035 19.0243 22.1528 19.0833 22.3334 19.0833ZM13.0209 26.25H20.6875C20.1597 25.5972 19.5729 25.1215 18.9271 24.8229C18.2813 24.5243 17.5903 24.375 16.8542 24.375C16.1181 24.375 15.4202 24.5208 14.7604 24.8125C14.1007 25.1042 13.5209 25.5833 13.0209 26.25ZM16.8542 20.2083C16.5209 20.2083 16.2361 20.0903 16 19.8542C15.7639 19.6181 15.6459 19.3333 15.6459 19C15.6459 18.6667 15.7639 18.3819 16 18.1458C16.2361 17.9097 16.5209 17.7917 16.8542 17.7917C17.1875 17.7917 17.4722 17.9097 17.7084 18.1458C17.9445 18.3819 18.0625 18.6667 18.0625 19C18.0625 19.3333 17.9445 19.6181 17.7084 19.8542C17.4722 20.0903 17.1875 20.2083 16.8542 20.2083ZM24.5209 18.3125L22.3334 16.6667V15.8333L24.5 17.4792L26.6667 15.8333V16.6667L24.5209 18.3125Z" fill="#606266"/>
</g>
<defs>
<clipPath id="clip0_25_4680">
<rect width="20" height="20" fill="white" transform="translate(10 10)"/>
</clipPath>
</defs>
</svg>
