<svg width="20" height="20" viewBox="0 0 20 20" fill="none" xmlns="http://www.w3.org/2000/svg">
<g clip-path="url(#clip0_61_4681)">
<path d="M1.22919 17.5C0.895854 17.5 0.604187 17.375 0.354187 17.125C0.104187 16.875 -0.020813 16.5833 -0.020813 16.25V3.75C-0.020813 3.41667 0.104187 3.125 0.354187 2.875C0.604187 2.625 0.895854 2.5 1.22919 2.5H18.75C19.0834 2.5 19.375 2.625 19.625 2.875C19.875 3.125 20 3.41667 20 3.75V16.25C20 16.5833 19.875 16.875 19.625 17.125C19.375 17.375 19.0834 17.5 18.75 17.5H1.22919ZM12.2709 16.25H18.75V3.75H1.22919V16.25H1.43752C2.04863 15.2222 2.82641 14.4444 3.77085 13.9167C4.7153 13.3889 5.74308 13.125 6.85419 13.125C7.9653 13.125 8.9896 13.3889 9.9271 13.9167C10.8646 14.4444 11.6459 15.2222 12.2709 16.25ZM6.85419 11.4583C7.54863 11.4583 8.13196 11.2222 8.60419 10.75C9.07641 10.2778 9.31252 9.69444 9.31252 9C9.31252 8.30556 9.07641 7.72222 8.60419 7.25C8.13196 6.77778 7.54863 6.54167 6.85419 6.54167C6.15974 6.54167 5.57641 6.77778 5.10419 7.25C4.63197 7.72222 4.39585 8.30556 4.39585 9C4.39585 9.69444 4.63197 10.2778 5.10419 10.75C5.57641 11.2222 6.15974 11.4583 6.85419 11.4583ZM12.3334 9.08333H16.6667C16.8472 9.08333 16.9965 9.02431 17.1146 8.90625C17.2327 8.78819 17.2917 8.63889 17.2917 8.45833V5.83333C17.2917 5.65278 17.2327 5.50347 17.1146 5.38542C16.9965 5.26736 16.8472 5.20833 16.6667 5.20833H12.3334C12.1528 5.20833 12.0035 5.26736 11.8854 5.38542C11.7674 5.50347 11.7084 5.65278 11.7084 5.83333V8.45833C11.7084 8.63889 11.7674 8.78819 11.8854 8.90625C12.0035 9.02431 12.1528 9.08333 12.3334 9.08333ZM3.02085 16.25H10.6875C10.1597 15.5972 9.57294 15.1215 8.9271 14.8229C8.28127 14.5243 7.5903 14.375 6.85419 14.375C6.11808 14.375 5.42016 14.5208 4.76044 14.8125C4.10072 15.1042 3.52085 15.5833 3.02085 16.25ZM6.85419 10.2083C6.52085 10.2083 6.23613 10.0903 6.00002 9.85417C5.76391 9.61806 5.64585 9.33333 5.64585 9C5.64585 8.66667 5.76391 8.38194 6.00002 8.14583C6.23613 7.90972 6.52085 7.79167 6.85419 7.79167C7.18752 7.79167 7.47224 7.90972 7.70835 8.14583C7.94446 8.38194 8.06252 8.66667 8.06252 9C8.06252 9.33333 7.94446 9.61806 7.70835 9.85417C7.47224 10.0903 7.18752 10.2083 6.85419 10.2083ZM14.5209 8.3125L12.3334 6.66667V5.83333L14.5 7.47917L16.6667 5.83333V6.66667L14.5209 8.3125Z" fill="#606266"/>
</g>
<defs>
<clipPath id="clip0_61_4681">
<rect width="20" height="20" fill="white"/>
</clipPath>
</defs>
</svg>
