<svg width="12" height="12" viewBox="0 0 12 12" fill="none" xmlns="http://www.w3.org/2000/svg">
<path d="M7.97502 8.1C7.88336 8.00833 7.83752 7.89583 7.83752 7.7625C7.83752 7.62917 7.88752 7.51667 7.98752 7.425L8.96252 6.45H5.08752C4.96252 6.45 4.85627 6.40417 4.76877 6.3125C4.68127 6.22083 4.63752 6.1125 4.63752 5.9875C4.63752 5.8625 4.68127 5.75625 4.76877 5.66875C4.85627 5.58125 4.96252 5.5375 5.08752 5.5375H8.93752L7.93752 4.525C7.84586 4.44167 7.80211 4.3375 7.80627 4.2125C7.81044 4.0875 7.85836 3.97917 7.95002 3.8875C8.04169 3.80417 8.15211 3.7625 8.28127 3.7625C8.41044 3.7625 8.52502 3.80833 8.62502 3.9L10.4125 5.6875C10.4542 5.7375 10.4875 5.78958 10.5125 5.84375C10.5375 5.89792 10.55 5.95417 10.55 6.0125C10.55 6.07083 10.5375 6.12708 10.5125 6.18125C10.4875 6.23542 10.4542 6.28333 10.4125 6.325L8.63752 8.1125C8.55419 8.19583 8.44794 8.2375 8.31877 8.2375C8.18961 8.2375 8.07502 8.19167 7.97502 8.1ZM2.18752 10.625C1.93752 10.625 1.72294 10.5333 1.54377 10.35C1.36461 10.1667 1.27502 9.95417 1.27502 9.7125V2.2875C1.27502 2.04583 1.36461 1.83333 1.54377 1.65C1.72294 1.46667 1.93752 1.375 2.18752 1.375H5.40002C5.52502 1.375 5.63336 1.41875 5.72502 1.50625C5.81669 1.59375 5.86252 1.7 5.86252 1.825C5.86252 1.95833 5.81669 2.06875 5.72502 2.15625C5.63336 2.24375 5.52502 2.2875 5.40002 2.2875H2.18752V9.7125H5.40002C5.52502 9.7125 5.63336 9.75625 5.72502 9.84375C5.81669 9.93125 5.86252 10.0375 5.86252 10.1625C5.86252 10.2958 5.81669 10.4062 5.72502 10.4937C5.63336 10.5812 5.52502 10.625 5.40002 10.625H2.18752Z" fill="#606266"/>
</svg>
