<svg width="18" height="18" viewBox="0 0 18 18" fill="none" xmlns="http://www.w3.org/2000/svg">
<path d="M2.8125 13.5C2.65 13.5 2.51563 13.4469 2.40938 13.3406C2.30313 13.2344 2.25 13.1 2.25 12.9375C2.25 12.775 2.30313 12.6406 2.40938 12.5344C2.51563 12.4281 2.65 12.375 2.8125 12.375H15.1875C15.35 12.375 15.4844 12.4281 15.5906 12.5344C15.6969 12.6406 15.75 12.775 15.75 12.9375C15.75 13.1 15.6969 13.2344 15.5906 13.3406C15.4844 13.4469 15.35 13.5 15.1875 13.5H2.8125ZM2.8125 9.5625C2.65 9.5625 2.51563 9.50938 2.40938 9.40313C2.30313 9.29688 2.25 9.1625 2.25 9C2.25 8.8375 2.30313 8.70312 2.40938 8.59687C2.51563 8.49062 2.65 8.4375 2.8125 8.4375H15.1875C15.35 8.4375 15.4844 8.49062 15.5906 8.59687C15.6969 8.70312 15.75 8.8375 15.75 9C15.75 9.1625 15.6969 9.29688 15.5906 9.40313C15.4844 9.50938 15.35 9.5625 15.1875 9.5625H2.8125ZM2.8125 5.625C2.65 5.625 2.51563 5.57187 2.40938 5.46562C2.30313 5.35937 2.25 5.225 2.25 5.0625C2.25 4.9 2.30313 4.76563 2.40938 4.65938C2.51563 4.55313 2.65 4.5 2.8125 4.5H15.1875C15.35 4.5 15.4844 4.55313 15.5906 4.65938C15.6969 4.76563 15.75 4.9 15.75 5.0625C15.75 5.225 15.6969 5.35937 15.5906 5.46562C15.4844 5.57187 15.35 5.625 15.1875 5.625H2.8125Z" fill="#606266"/>
</svg>
