<svg width="10" height="12" viewBox="0 0 10 12" fill="none" xmlns="http://www.w3.org/2000/svg">
<path d="M1.25 1.5V10.5H8.75V1.5H1.25ZM0.875 0.75H9.125C9.2345 0.75 9.32438 0.785125 9.39462 0.855375C9.46488 0.925625 9.5 1.0155 9.5 1.125V10.875C9.5 10.9845 9.46488 11.0744 9.39462 11.1446C9.32438 11.2149 9.2345 11.25 9.125 11.25H0.875C0.7655 11.25 0.675625 11.2149 0.605375 11.1446C0.535125 11.0744 0.5 10.9845 0.5 10.875V1.125C0.5 1.0155 0.535125 0.925625 0.605375 0.855375C0.675625 0.785125 0.7655 0.75 0.875 0.75ZM2.75 6H7.25V6.75H2.75V6ZM2.75 3.75H5V4.5H2.75V3.75ZM2.75 8.25H7.25V9H2.75V8.25Z" fill="#606266"/>
</svg>
